<?xml version="1.0" encoding="utf-8"?>
<svg version="1.1" id="book_layer" xmlns="http://www.w3.org/2000/svg" xmlns:xlink="http://www.w3.org/1999/xlink" x="0px" y="0px" xml:space="preserve">
    <g id="g-book">
      <path
         id="path-book"
         d="m 29.383046,146.13868 c -0.913015,-0.24496 -1.057515,-5.09414 -1.413824,-47.445765 L 27.572351,51.52 l 4.52882,-4.57055 4.528821,-4.57055 5.525004,-0.421015 c 7.981193,-0.608181 15.335086,-2.051601 21.708877,-4.261012 10.431813,-3.616084 17.413042,-3.617266 24.554079,-0.0042 l 3.617952,1.830554 4.038438,-2.001636 C 99.893901,35.628484 100.51295,35.52 107.49639,35.52 c 6.90059,0 7.82795,0.157166 14.17596,2.40249 6.67861,2.36226 16.66228,4.295925 22.32765,4.32448 2.69986,0.01361 3.17023,0.298686 7.52,4.557611 l 4.64,4.543095 V 98.633837 145.92 h -2.73679 c -6.85017,0 -18.66848,-2.10787 -32.14321,-5.73294 -3.872,-1.04168 -7.93041,-1.9059 -9.01869,-1.92051 -1.75753,-0.0236 -2.06329,0.25576 -2.73541,2.49911 -0.41619,1.38912 -1.50861,3.11712 -2.42762,3.84 -1.5584,1.22585 -2.529,1.31434 -14.416373,1.31434 -14.273926,0 -15.613651,-0.31334 -17.395609,-4.06853 C 74.710835,140.63876 74.24,139.33008 74.24,138.94328 c 0,-0.41699 -1.23753,-0.68978 -3.04,-0.67012 -2.870618,0.0313 -5.309338,0.59826 -20,4.64944 -9.995981,2.75654 -18.730582,4.04413 -21.816954,3.21608 z M 45.12,142.01573 c 3.168,-0.70175 8.064,-2.00097 10.88,-2.88713 9.336205,-2.93803 17.012314,-4.12512 19.787654,-3.06013 0.593978,0.22793 1.012346,1.1389 1.012346,2.20432 0,0.9987 0.694406,2.62389 1.543117,3.61152 l 1.543123,1.79569 10.757216,0.2049 c 13.124724,0.24999 14.643454,0.017 15.914954,-2.44182 0.52887,-1.02273 0.96159,-2.43968 0.96159,-3.14878 0,-1.9038 2.22156,-2.80781 5.6732,-2.30857 1.63174,0.23601 7.29117,1.53791 12.57652,2.89312 9.57643,2.45546 21.10922,4.48115 25.51242,4.48115 H 153.6 V 97.735942 52.111882 L 150.4,48.96 147.2,45.808118 v 45.331639 45.331633 l -5.6,-0.44175 c -7.85368,-0.61954 -17.18218,-2.58922 -22.68316,-4.78949 -6.71472,-2.68574 -12.28597,-3.53996 -16.9436,-2.59794 -4.292747,0.86824 -8.49589,3.09479 -10.391595,5.50479 l -1.311975,1.6679 -2.945702,-2.59291 c -6.319994,-5.56308 -13.565216,-6.16633 -25.580319,-2.12986 -7.730032,2.59691 -14.818535,4.19693 -21.583649,4.8719 l -3.68,0.36715 V 91.389651 46.448118 L 33.28,49.6 l -3.2,3.151882 v 11.918761 c 0,6.555322 0.191539,27.12105 0.425642,45.701617 l 0.425642,33.78286 4.214358,-0.43173 c 2.317897,-0.23746 6.806358,-1.0059 9.974358,-1.70766 z m 5.358138,-9.91748 c 2.242975,-0.50384 7.138975,-1.99206 10.88,-3.30716 6.057248,-2.12933 7.467456,-2.38857 12.881862,-2.36811 5.278406,0.02 6.552006,0.25189 9.660102,1.75922 1.96905,0.95493 4.082432,2.29131 4.696404,2.96974 1.095104,1.21007 1.170438,1.19218 3.966969,-0.94247 6.863584,-5.23909 16.768645,-5.48037 28.236425,-0.68783 4.45572,1.86212 12.17148,3.51273 18.8801,4.03899 l 4.96,0.38909 V 89.420909 44.892104 l -3.68,-0.397892 c -8.57696,-0.927363 -13.0705,-1.887508 -20.32,-4.341816 -6.54072,-2.214354 -8.48699,-2.603856 -13.12,-2.625685 -4.61359,-0.02174 -6.02071,0.241638 -9.262643,1.733725 -2.102451,0.967645 -4.290893,2.18312 -4.863207,2.701055 -0.926265,0.838261 -1.445715,0.697729 -4.729081,-1.279412 -6.920698,-4.167424 -12.880288,-4.444755 -22.879776,-1.064712 -7.664052,2.590614 -14.144905,3.953525 -21.140109,4.445724 L 38.72,44.48 l -0.16437,44.703347 -0.16437,44.703343 4.00437,-0.43618 c 2.202403,-0.2399 5.839532,-0.84842 8.082508,-1.35226 z M 90.88,84.16 c 0,-32.284444 0.117798,-36.8 0.96,-36.8 0.842202,0 0.96,4.515556 0.96,36.8 0,32.28444 -0.117798,36.8 -0.96,36.8 -0.842202,0 -0.96,-4.51556 -0.96,-36.8 z"
         style="fill:#2b8dcd;stroke-width:0.64" />
    </g>
</svg>
